<?xml version="1.0" encoding="UTF-8" standalone="no"?>
<!-- Created with Inkscape (http://www.inkscape.org/) -->

<svg
   width="57.58934mm"
   height="44.52927mm"
   viewBox="0 0 57.58934 44.52927"
   version="1.1"
   id="svg1"
   xml:space="preserve"
   inkscape:version="1.3 (0e150ed6c4, 2023-07-21)"
   sodipodi:docname="basket.svg"
   xmlns:inkscape="http://www.inkscape.org/namespaces/inkscape"
   xmlns:sodipodi="http://sodipodi.sourceforge.net/DTD/sodipodi-0.dtd"
   xmlns="http://www.w3.org/2000/svg"
   xmlns:svg="http://www.w3.org/2000/svg"><sodipodi:namedview
     id="namedview1"
     pagecolor="#ffffff"
     bordercolor="#000000"
     borderopacity="0.25"
     inkscape:showpageshadow="2"
     inkscape:pageopacity="0.0"
     inkscape:pagecheckerboard="0"
     inkscape:deskcolor="#d1d1d1"
     inkscape:document-units="mm"
     inkscape:zoom="2.3900548"
     inkscape:cx="47.48845"
     inkscape:cy="67.990072"
     inkscape:window-width="1366"
     inkscape:window-height="705"
     inkscape:window-x="-8"
     inkscape:window-y="-8"
     inkscape:window-maximized="1"
     inkscape:current-layer="layer1" /><defs
     id="defs1" /><g
     inkscape:label="Слой 1"
     inkscape:groupmode="layer"
     id="layer1"
     transform="translate(-74.220058,-131.37761)"><path
       style="fill:#000000;fill-opacity:1;stroke:none;stroke-width:2.5104;paint-order:stroke fill markers"
       d="m 320.91314,664.41991 c 0,-0.23012 -0.33285,-0.4184 -0.73967,-0.4184 -0.40683,0 -1.43238,-0.4707 -2.27901,-1.04601 -0.84663,-0.5753 -1.66561,-1.046 -1.81995,-1.046 -0.15434,0 -1.04074,-0.76012 -1.96978,-1.68916 -1.88984,-1.88983 -3.12846,-5.43711 -9.55713,-41.93021 -6.42866,-36.4931 -6.78655,-38.43975 -7.0116,-39.78253 -0.49596,-2.95924 -5.21119,-3.59425 -8.06841,-3.61208 -2.97287,-0.0186 -4.73976,-0.95284 -6.75093,-3.56971 -0.45137,-0.58731 -1.16786,-2.24775 -1.72798,-4.00451 -0.63264,-1.98422 -0.6278,-14.71382 0.006,-16.67661 1.24466,-3.85244 2.5759,-5.71575 5.0738,-7.1017 1.5411,-0.85507 6.0839,-0.87824 25.12923,-0.90199 l 19.54749,-0.0244 3.39875,-5.82293 c 2.03894,-3.70802 23.16968,-40.08412 28.56321,-39.43541 5.39354,0.64872 -16.27194,38.14828 -17.34837,41.22146 -1.22234,2.38842 -0.61348,4.08923 -0.61348,4.08923 l 47.18281,-0.1064 47.1828,-0.10639 0.11834,-1.46441 c 0.0885,-1.09528 -0.14877,-1.74981 -6.21963,-11.9904 -6.07086,-10.24059 -18.9726,-32.74771 -13.00329,-32.45318 5.96932,0.29454 18.83767,22.84549 24.99086,33.49286 6.15319,10.64738 6.45607,11.11809 6.7112,11.57833 0.45222,0.8158 1.00872,0.84205 22.17522,1.046 16.87398,0.16259 18.16879,0.3989 21.65563,4.84673 3.48684,4.44783 2.95933,8.34902 1.58766,16.48049 -1.37167,8.13148 -3.81825,10.88961 -11.16332,10.88961 -7.47896,0 -3.37052,-0.11559 -9.71821,39.49837 -6.34769,39.61395 -8.15647,43.80707 -10.51187,45.92034 -1.83988,1.65074 -2.91269,2.30716 -6.84749,4.18978 -1.08024,0.51684 -137.97323,0.4466 -137.97323,-0.0708 z m 18.9204,-13.07502 c 0.31381,-0.28765 0.92202,-0.72099 1.35159,-0.96297 0.42957,-0.24198 1.13072,-1.08924 1.5581,-1.8828 0.73638,-1.36727 0.77124,-2.76853 0.6657,-26.75606 -0.10796,-24.53878 -0.13685,-25.34677 -0.94443,-26.40947 -1.37303,-1.80679 -2.94599,-2.46016 -5.92276,-2.46016 -1.49226,0 -3.12445,0.21381 -3.62709,0.47514 -1.20844,0.62827 -2.37503,1.86763 -2.3916,2.54077 -0.007,0.29727 -0.28975,0.90597 -0.6276,1.35266 -0.52368,0.69236 -0.6143,4.38059 -0.6143,25.0025 v 24.19032 l 1.1282,2.08894 c 0.62052,1.14891 1.29295,2.08893 1.49429,2.08893 0.20134,0 0.64851,0.28242 0.99369,0.6276 0.79615,0.79616 6.09461,0.87607 6.93621,0.1046 z m 27.11515,-0.19208 c 1.31878,-0.91157 1.71518,-1.32515 2.60893,-2.722 0.66925,-1.04598 0.72677,-3.1085 0.72677,-26.06015 0,-27.5268 0.17101,-25.71357 -2.67337,-28.34663 -1.13551,-1.05114 -1.52576,-1.1506 -4.51479,-1.1506 -3.25929,0 -3.27827,0.006 -4.94545,1.6736 l -1.6736,1.6736 v 25.98084 c 0,25.59533 0.0128,25.99887 0.86529,27.19603 0.47591,0.66835 1.0542,1.21519 1.28509,1.21519 0.23089,0 0.70221,0.28242 1.04739,0.6276 0.91672,0.91671 5.90783,0.85669 7.27374,-0.0875 z m 26.44011,0.19208 c 0.31381,-0.28765 0.93188,-0.7272 1.37349,-0.97678 0.44162,-0.24958 1.16797,-1.09684 1.61412,-1.8828 0.77572,-1.36654 0.81301,-2.49915 0.853,-25.90545 0.0466,-27.28021 0.13539,-26.38351 -2.83681,-28.65053 -1.17863,-0.89898 -1.82427,-1.0559 -4.34437,-1.0559 -3.67913,0 -5.22253,0.78782 -6.44139,3.28799 -0.87483,1.79448 -0.88923,2.21183 -0.90207,26.15003 -0.009,17.0447 0.12729,24.66176 0.4558,25.44668 0.59902,1.43128 1.81421,2.85456 2.4372,2.85456 0.26586,0 0.71777,0.28242 1.00424,0.6276 0.66284,0.79867 5.94086,0.88002 6.78679,0.1046 z m 27.14483,-0.21196 c 3.80574,-2.55345 3.72543,-1.92876 3.71812,-28.91947 -0.006,-23.89039 -0.0684,-24.89576 -1.6673,-27.0461 -1.28564,-1.72909 -2.75716,-2.29393 -5.97608,-2.29393 -2.8836,0 -3.17341,0.086 -4.61713,1.37043 -0.84722,0.75373 -1.5404,1.68403 -1.5404,2.06731 0,0.38328 -0.18828,0.81324 -0.4184,0.95546 -0.27128,0.16766 -0.4184,8.92648 -0.4184,24.9083 v 24.6497 l 0.95519,1.70058 c 1.42081,2.52954 2.91102,3.33717 6.15761,3.33717 1.89152,0 3.05064,-0.22211 3.80679,-0.72945 z m 26.46747,0.10736 c 0.34518,-0.34518 0.74864,-0.6276 0.89658,-0.6276 0.36109,0 1.13894,-0.87396 1.7782,-1.9979 0.40247,-0.70763 0.523,-6.73983 0.523,-26.17417 0,-27.68871 0.0691,-26.89362 -2.49588,-28.72005 -0.93156,-0.66332 -1.84801,-0.84714 -4.22362,-0.84714 -2.60794,0 -3.23046,0.1499 -4.43366,1.06763 -2.76414,2.10831 -2.65406,0.92915 -2.65406,28.4296 0,26.86934 -0.0579,26.13026 2.20146,28.08261 1.42982,1.23551 1.82203,1.34419 4.98607,1.38159 1.9615,0.0232 2.98136,-0.15402 3.42191,-0.59457 z"
       id="path1"
       sodipodi:nodetypes="csssscsssscsscccccccscccssccscssccssssssscsscsssssssssccssssssssssssssssssscsssssscssssssssssssss"
       transform="scale(0.26458333)" /></g></svg>
