<?xml version="1.0" encoding="UTF-8" standalone="no"?>
<!-- Created with Inkscape (http://www.inkscape.org/) -->

<svg
   width="112.95772mm"
   height="35.126072mm"
   viewBox="0 0 112.95772 35.126072"
   version="1.1"
   id="svg1"
   inkscape:version="1.3 (0e150ed6c4, 2023-07-21)"
   sodipodi:docname="logo.svg"
   xmlns:inkscape="http://www.inkscape.org/namespaces/inkscape"
   xmlns:sodipodi="http://sodipodi.sourceforge.net/DTD/sodipodi-0.dtd"
   xmlns="http://www.w3.org/2000/svg"
   xmlns:svg="http://www.w3.org/2000/svg">
  <sodipodi:namedview
     id="namedview1"
     pagecolor="#ffffff"
     bordercolor="#000000"
     borderopacity="0.25"
     inkscape:showpageshadow="2"
     inkscape:pageopacity="0.0"
     inkscape:pagecheckerboard="0"
     inkscape:deskcolor="#d1d1d1"
     inkscape:document-units="mm"
     inkscape:zoom="0.64126689"
     inkscape:cx="107.59951"
     inkscape:cy="94.344494"
     inkscape:window-width="1366"
     inkscape:window-height="705"
     inkscape:window-x="-8"
     inkscape:window-y="-8"
     inkscape:window-maximized="1"
     inkscape:current-layer="layer1" />
  <defs
     id="defs1" />
  <g
     inkscape:label="Слой 1"
     inkscape:groupmode="layer"
     id="layer1"
     transform="translate(-1.0618627,-0.92293495)">
    <path
       sodipodi:type="star"
       style="fill:#ffac01;fill-opacity:1;stroke-width:0.264583"
       id="path44"
       inkscape:flatsided="false"
       sodipodi:sides="4"
       sodipodi:cx="84.315323"
       sodipodi:cy="164.83792"
       sodipodi:r1="12.626342"
       sodipodi:r2="6.3131719"
       sodipodi:arg1="0.70361378"
       sodipodi:arg2="1.4890119"
       inkscape:rounded="0"
       inkscape:randomized="0.1"
       d="m 93.615082,174.06812 -8.294666,-2.22497 -10.348432,3.50159 3.310697,-10.85874 -2.615982,-8.12284 8.918544,1.69134 8.063838,-1.68971 -0.827013,7.36829 z"
       inkscape:transform-center-x="0.43967446"
       inkscape:transform-center-y="-0.021040959"
       transform="rotate(-111.08375,17.58773,98.900789)" />
    <text
       xml:space="preserve"
       style="font-style:normal;font-variant:normal;font-weight:normal;font-stretch:normal;font-size:12.7px;font-family:Raleway;-inkscape-font-specification:Raleway;fill:#000000;stroke-width:0.264583"
       x="35.301571"
       y="80.230843"
       id="text2"><tspan
         sodipodi:role="line"
         id="tspan2"
         style="stroke-width:0.264583"
         x="35.301571"
         y="80.230843" /></text>
    <path
       sodipodi:type="star"
       style="fill:#ff6d01;fill-opacity:1;stroke-width:0.264583"
       id="path45"
       inkscape:flatsided="false"
       sodipodi:sides="4"
       sodipodi:cx="112.32318"
       sodipodi:cy="170.67288"
       sodipodi:r1="8.0111399"
       sodipodi:r2="4.0055709"
       sodipodi:arg1="0.99289439"
       sodipodi:arg2="1.7782926"
       inkscape:rounded="0"
       inkscape:randomized="0.1"
       d="m 117.21412,177.60307 -5.35071,-3.50337 -5.57769,1.05401 1.83607,-5.87061 0.10773,-5.2086 4.4098,2.63927 5.7521,-1.03877 -1.92242,5.30849 z"
       inkscape:transform-center-x="0.080663761"
       inkscape:transform-center-y="-0.44574016"
       transform="translate(-27.464396,-153.95154)" />
    <path
       sodipodi:type="star"
       style="fill:#ff8601;fill-opacity:1;stroke-width:0.264583"
       id="path47"
       inkscape:flatsided="false"
       sodipodi:sides="4"
       sodipodi:cx="35.593315"
       sodipodi:cy="163.08743"
       sodipodi:r1="9.0112047"
       sodipodi:r2="4.5056038"
       sodipodi:arg1="1.0636978"
       sodipodi:arg2="1.849096"
       inkscape:rounded="0"
       inkscape:randomized="0.1"
       d="m 39.483927,171.46006 -5.18832,-4.92449 -5.769348,1.452 2.213944,-5.53259 -0.274777,-6.55237 6.721638,2.79953 6.038272,0.67296 -4.045834,5.0433 z"
       inkscape:transform-center-x="0.14741103"
       inkscape:transform-center-y="-0.54297632"
       transform="translate(-27.464396,-153.95154)" />
    <path
       sodipodi:type="star"
       style="fill:#ff2701;fill-opacity:1;stroke-width:0.264583"
       id="path48"
       inkscape:flatsided="false"
       sodipodi:sides="4"
       sodipodi:cx="65.351669"
       sodipodi:cy="166.29666"
       sodipodi:r1="9.2856731"
       sodipodi:r2="4.642837"
       sodipodi:arg1="0.80761673"
       sodipodi:arg2="1.5930149"
       inkscape:rounded="0"
       inkscape:randomized="0.1"
       d="m 72.484393,173.05566 -7.027003,-1.95428 -6.651937,2.22488 1.114576,-7.35903 -0.281729,-5.61028 6.619161,1.70623 5.202645,-1.97684 -1.045042,5.64928 z"
       inkscape:transform-center-x="0.2438425"
       inkscape:transform-center-y="0.16897083"
       transform="rotate(-153.69267,33.450423,93.568134)" />
    <path
       sodipodi:type="star"
       style="fill:#ff0101;fill-opacity:1;stroke-width:0.264583"
       id="path49"
       inkscape:flatsided="false"
       sodipodi:sides="4"
       sodipodi:cx="93.06778"
       sodipodi:cy="171.54813"
       sodipodi:r1="9.7157068"
       sodipodi:r2="4.8578539"
       sodipodi:arg1="0.72165485"
       sodipodi:arg2="1.507053"
       inkscape:rounded="0"
       inkscape:randomized="0.1"
       d="m 100.8252,178.75532 -7.924198,-3.10827 -6.817785,3.39841 1.453034,-8.08844 -2.361265,-6.49783 7.444103,1.36059 7.193155,-2.33246 -1.314282,7.95274 z"
       inkscape:transform-center-x="-0.036593506"
       inkscape:transform-center-y="-0.45317899"
       transform="translate(-27.464396,-153.95154)" />
    <path
       sodipodi:type="star"
       style="fill:#ff0101;fill-opacity:1;stroke-width:0.264583"
       id="path50"
       inkscape:flatsided="false"
       sodipodi:sides="4"
       sodipodi:cx="112.32318"
       sodipodi:cy="182.92632"
       sodipodi:r1="7.7519512"
       sodipodi:r2="3.8759756"
       sodipodi:arg1="-1.2252407"
       sodipodi:arg2="-0.43984258"
       inkscape:rounded="0"
       inkscape:randomized="0.1"
       d="m 115.32744,175.40154 0.0129,6.00497 3.85725,4.43779 -4.84416,0.0611 -4.22368,4.09515 -1.50521,-6.05362 -3.24124,-4.01052 4.84414,-0.23276 z"
       inkscape:transform-center-x="-0.70720128"
       inkscape:transform-center-y="-0.035076752"
       transform="translate(-27.464396,-153.95154)" />
    <path
       style="font-size:12.7px;font-family:Raleway;-inkscape-font-specification:Raleway;fill:#352222;stroke:#ffffff;stroke-width:1.5875;paint-order:stroke fill markers;stroke-dasharray:none"
       d="m 14.678961,11.463847 h 0.7493 l 3.746499,9.016999 h -0.9398 l -1.168399,-2.8194 h -4.0513 l -1.1557,2.8194 h -0.9525 z m 2.1844,5.499099 -1.8161,-4.457699 -1.8415,4.457699 z m 3.225811,0.7874 v -3.886199 h 0.8636 v 3.733799 q 0,1.1303 0.381,1.6891 0.3937,0.5588 1.1557,0.5588 0.508,0 0.9779,-0.2159 0.4826,-0.2286 0.8509,-0.635 0.3683,-0.4191 0.5588,-0.9652 v -4.165599 h 0.8636 v 5.575299 q 0,0.1778 0.0762,0.2667 0.0762,0.0762 0.2286,0.0889 v 0.6858 q -0.1524,0.0127 -0.2413,0.0127 -0.0889,0.0127 -0.1651,0.0127 -0.254,-0.0254 -0.4445,-0.2032 -0.1778,-0.1778 -0.1905,-0.4318 l -0.0254,-0.889 q -0.4318,0.762 -1.1811,1.1938 -0.7366,0.4318 -1.6002,0.4318 -1.0414,0 -1.5748,-0.7239 -0.5334,-0.7239 -0.5334,-2.1336 z m 10.782298,2.413 q -0.1016,0.0381 -0.3175,0.1397 -0.2159,0.1016 -0.5207,0.1778 -0.3048,0.0762 -0.6604,0.0762 -0.3683,0 -0.6985,-0.1397 -0.3175,-0.1397 -0.508,-0.4191 -0.1905,-0.2921 -0.1905,-0.7112 v -4.7371 h -0.9144 v -0.685799 h 0.9144 v -2.2352 h 0.8636 v 2.2352 h 1.524 v 0.685799 h -1.524 v 4.4958 q 0.0254,0.3556 0.254,0.5334 0.2413,0.1778 0.5461,0.1778 0.3556,0 0.6477,-0.1143 0.2921,-0.127 0.3556,-0.1778 z m 1.015988,-2.413 v -3.886199 h 0.8636 v 3.733799 q 0,1.1303 0.381,1.6891 0.3937,0.5588 1.1557,0.5588 0.508,0 0.9779,-0.2159 0.4826,-0.2286 0.8509,-0.635 0.3683,-0.4191 0.5588,-0.9652 v -4.165599 h 0.8636 v 5.575299 q 0,0.1778 0.0762,0.2667 0.0762,0.0762 0.2286,0.0889 v 0.6858 q -0.1524,0.0127 -0.2413,0.0127 -0.0889,0.0127 -0.1651,0.0127 -0.254,-0.0254 -0.4445,-0.2032 -0.1778,-0.1778 -0.1905,-0.4318 l -0.0254,-0.889 q -0.4318,0.762 -1.1811,1.1938 -0.7366,0.4318 -1.6002,0.4318 -1.0414,0 -1.5748,-0.7239 -0.5334,-0.7239 -0.5334,-2.1336 z m 17.449798,2.7305 h -0.8636 v -3.6957 q 0,-1.1557 -0.3683,-1.7018 -0.3683,-0.5461 -1.0922,-0.5461 -0.7493,0 -1.3462,0.5334 -0.5842,0.5334 -0.8255,1.3716 v 4.0386 h -0.8636 v -3.6957 q 0,-1.1684 -0.3556,-1.7018 -0.3556,-0.5461 -1.0922,-0.5461 -0.7366,0 -1.3335,0.5207 -0.5969,0.5207 -0.8382,1.3716 v 4.0513 h -0.8636 v -6.616699 h 0.7874 v 1.498599 q 0.4191,-0.7747 1.0668,-1.1938 0.6604,-0.419099 1.4605,-0.419099 0.8255,0 1.3335,0.469899 0.508,0.4699 0.6223,1.2319 0.4572,-0.8382 1.0922,-1.27 0.6477,-0.431799 1.4605,-0.431799 0.5588,0 0.9398,0.2032 0.3937,0.2032 0.6223,0.584199 0.2413,0.3683 0.3429,0.9017 0.1143,0.5207 0.1143,1.1684 z m 7.391409,0 h -0.8636 v -3.6957 q 0,-1.1684 -0.3429,-1.7018 -0.3429,-0.5461 -1.0795,-0.5461 -0.508,0 -1.0033,0.254 -0.4953,0.2413 -0.8763,0.6731 -0.3683,0.4191 -0.5334,0.9652 v 4.0513 h -0.8636 v -6.616699 h 0.7874 v 1.498599 q 0.2667,-0.4826 0.6985,-0.8382 0.4318,-0.368299 0.9779,-0.571499 0.5461,-0.2032 1.1303,-0.2032 0.5461,0 0.9271,0.2032 0.381,0.2032 0.6096,0.584199 0.2286,0.3683 0.3302,0.9017 0.1016,0.5207 0.1016,1.1684 z m 10.528289,-7.327899 q -0.1905,-0.2159 -0.4445,-0.381 -0.254,-0.1778 -0.5715,-0.3048 -0.3175,-0.127 -0.6858,-0.2032 -0.3556,-0.0762 -0.762,-0.0762 -1.1811,0 -1.7399,0.4572 -0.5461,0.4445 -0.5461,1.2192 0,0.533399 0.254,0.838199 0.2667,0.3048 0.8255,0.4953 0.5588,0.1905 1.4224,0.3937 0.9652,0.2032 1.6637,0.4826 0.6985,0.2794 1.0795,0.762 0.381,0.4699 0.381,1.2827 0,0.6223 -0.2413,1.0795 -0.2413,0.4572 -0.6731,0.762 -0.4318,0.3048 -1.0287,0.4572 -0.5969,0.1397 -1.3081,0.1397 -0.6985,0 -1.3462,-0.1397 -0.635,-0.1524 -1.2065,-0.4318 -0.5715,-0.2921 -1.0668,-0.7366 l 0.4445,-0.7239 q 0.2413,0.254 0.5715,0.4826 0.3429,0.2159 0.7493,0.3937 0.4191,0.1778 0.889,0.2794 0.4826,0.0889 0.9906,0.0889 1.0795,0 1.6764,-0.3937 0.6096,-0.3937 0.6096,-1.1684 0,-0.5588 -0.3048,-0.889 -0.3048,-0.3429 -0.9144,-0.5588 -0.6096,-0.2159 -1.4986,-0.4191 -0.9398,-0.2159 -1.5875,-0.4826 -0.6477,-0.2667 -0.9779,-0.6985 -0.3175,-0.4445 -0.3175,-1.168399 0,-0.8382 0.4064,-1.4097 0.4191,-0.5842 1.143,-0.8763 0.7239,-0.3048 1.6637,-0.3048 0.5969,0 1.1049,0.127 0.5207,0.1143 0.9525,0.3429 0.4445,0.2286 0.8255,0.5715 z m 5.118105,7.454899 q -0.7112,0 -1.3208,-0.2667 -0.6096,-0.2794 -1.0541,-0.7493 -0.4445,-0.4826 -0.6985,-1.1049 -0.2413,-0.6223 -0.2413,-1.3335 0,-0.9271 0.4191,-1.7018 0.4318,-0.7747 1.1811,-1.2319 0.7493,-0.469899 1.7018,-0.469899 0.9779,0 1.7018,0.469899 0.7366,0.4699 1.1557,1.2446 0.4191,0.762 0.4191,1.6764 0,0.1016 0,0.2032 0,0.0889 -0.0127,0.1397 h -5.6642 q 0.0635,0.7112 0.3937,1.27 0.3429,0.5461 0.8763,0.8763 0.5461,0.3175 1.1811,0.3175 0.6477,0 1.2192,-0.3302 0.5842,-0.3302 0.8128,-0.8636 l 0.7493,0.2032 q -0.2032,0.4699 -0.6223,0.8509 -0.4191,0.381 -0.9906,0.5969 -0.5588,0.2032 -1.2065,0.2032 z m -2.4384,-3.7465 h 4.8895 q -0.0508,-0.7239 -0.3937,-1.27 -0.3302,-0.5461 -0.8763,-0.8509 -0.5334,-0.3175 -1.1811,-0.3175 -0.6477,0 -1.1811,0.3175 -0.5334,0.3048 -0.8763,0.8636 -0.3302,0.5461 -0.381,1.2573 z m 6.502399,1.7145 q 0,-0.6223 0.3556,-1.0668 0.3556,-0.4572 0.9779,-0.6985 0.635,-0.254 1.460499,-0.254 0.4826,0 1.0033,0.0762 0.5207,0.0762 0.9271,0.2286 v -0.5588 q 0,-0.8382 -0.4953,-1.3335 -0.4953,-0.4953 -1.3716,-0.4953 -0.533399,0 -1.054099,0.2032 -0.508,0.1905 -1.0668,0.5715 l -0.3302,-0.6096 q 0.6477,-0.4445 1.27,-0.660399 0.6223,-0.2286 1.269999,-0.2286 1.2192,0 1.9304,0.698499 0.7112,0.6985 0.7112,1.9304 v 3.0607 q 0,0.1778 0.0762,0.2667 0.0762,0.0762 0.2413,0.0889 v 0.6858 q -0.1397,0.0127 -0.2413,0.0254 -0.1016,0.0127 -0.1524,0 -0.3175,-0.0127 -0.4826,-0.2032 -0.1651,-0.1905 -0.1778,-0.4064 l -0.0127,-0.4826 q -0.4445,0.5715 -1.1557,0.889 -0.7112,0.3048 -1.447799,0.3048 -0.635,0 -1.1557,-0.2667 -0.508,-0.2794 -0.8001,-0.7366 -0.2794,-0.4699 -0.2794,-1.0287 z m 4.432299,0.508 q 0.1397,-0.1778 0.2159,-0.3429 0.0762,-0.1651 0.0762,-0.2921 v -0.9652 q -0.4318,-0.1651 -0.9017,-0.254 -0.4572,-0.0889 -0.9271,-0.0889 -0.927099,0 -1.498599,0.3683 -0.5715,0.3683 -0.5715,1.0033 0,0.3683 0.1905,0.6985 0.1905,0.3175 0.5588,0.5334 0.3683,0.2032 0.863599,0.2032 0.6223,0 1.1557,-0.2413 0.5461,-0.2413 0.8382,-0.6223 z m 5.194302,1.524 q -0.8128,0 -1.5113,-0.2667 -0.6985,-0.2667 -1.2065,-0.8128 l 0.3556,-0.6096 q 0.5588,0.5207 1.1176,0.762 0.5715,0.2286 1.2065,0.2286 0.7747,0 1.2573,-0.3048 0.4826,-0.3175 0.4826,-0.9017 0,-0.3937 -0.2413,-0.5969 -0.2286,-0.2159 -0.6731,-0.3429 -0.4318,-0.1397 -1.0414,-0.2921 -0.6858,-0.1905 -1.1557,-0.3937 -0.4572,-0.2159 -0.6985,-0.5334 -0.2286,-0.3302 -0.2286,-0.8509 0,-0.6477 0.3175,-1.0668 0.3302,-0.4318 0.889,-0.647699 0.5715,-0.2286 1.27,-0.2286 0.762,0 1.3462,0.2413 0.5842,0.241299 0.9525,0.673099 l -0.4191,0.5842 q -0.3556,-0.4064 -0.8509,-0.5969 -0.4826,-0.2032 -1.0795,-0.2032 -0.4064,0 -0.7747,0.1143 -0.3683,0.1016 -0.6096,0.3556 -0.2286,0.2413 -0.2286,0.6731 0,0.3556 0.1778,0.5588 0.1778,0.1905 0.5334,0.3302 0.3556,0.127 0.8763,0.2794 0.7493,0.2032 1.3081,0.4191 0.5588,0.2032 0.8636,0.5334 0.3048,0.3302 0.3048,0.9271 0,0.9271 -0.6985,1.4478 -0.6985,0.5207 -1.8415,0.5207 z m 6.781802,0 q -0.7112,0 -1.3208,-0.2667 -0.5969,-0.2794 -1.0414,-0.7493 -0.4318,-0.4826 -0.6731,-1.0922 -0.2413,-0.6223 -0.2413,-1.3081 0,-0.7112 0.2413,-1.3208 0.2413,-0.6223 0.6858,-1.0922 0.4445,-0.4826 1.0414,-0.749299 0.6096,-0.2794 1.3208,-0.2794 0.7112,0 1.308099,0.2794 0.5969,0.266699 1.0414,0.749299 0.4445,0.4699 0.6858,1.0922 0.2413,0.6096 0.2413,1.3208 0,0.6858 -0.2413,1.3081 -0.2413,0.6096 -0.6858,1.0922 -0.4318,0.4699 -1.0414,0.7493 -0.596899,0.2667 -1.320799,0.2667 z m -2.4003,-3.4036 q 0,0.7366 0.3175,1.3462 0.3302,0.5969 0.8763,0.9525 0.5461,0.3429 1.2065,0.3429 0.6604,0 1.206499,-0.3556 0.5461,-0.3556 0.8763,-0.9652 0.3302,-0.6223 0.3302,-1.3462 0,-0.7366 -0.3302,-1.3462 -0.3302,-0.6096 -0.8763,-0.9652 -0.546099,-0.3556 -1.206499,-0.3556 -0.6604,0 -1.2065,0.3683 -0.5334,0.3683 -0.8636,0.9779 -0.3302,0.5969 -0.3302,1.3462 z m 12.699989,3.2766 h -0.8636 v -3.6957 q 0,-1.1684 -0.3429,-1.7018 -0.3429,-0.5461 -1.0795,-0.5461 -0.508,0 -1.003301,0.254 -0.4953,0.2413 -0.8763,0.6731 -0.3683,0.4191 -0.5334,0.9652 v 4.0513 h -0.8636 v -6.616699 h 0.7874 v 1.498599 q 0.2667,-0.4826 0.6985,-0.8382 0.4318,-0.368299 0.977901,-0.571499 0.5461,-0.2032 1.1303,-0.2032 0.5461,0 0.9271,0.2032 0.381,0.2032 0.6096,0.584199 0.2286,0.3683 0.3302,0.9017 0.1016,0.5207 0.1016,1.1684 z"
       id="text3"
       aria-label="Autumn Season" />
    <path
       sodipodi:type="star"
       style="fill:#ff0101;fill-opacity:0.829876;stroke-width:0.264583"
       id="path43"
       inkscape:flatsided="false"
       sodipodi:sides="4"
       sodipodi:cx="57.766209"
       sodipodi:cy="178.25835"
       sodipodi:r1="10.607778"
       sodipodi:r2="5.3038898"
       sodipodi:arg1="1.0209431"
       sodipodi:arg2="1.8063413"
       inkscape:rounded="0"
       inkscape:randomized="0.1"
       d="m 62.300088,187.27401 -4.812252,-2.88121 -9.029935,-0.81187 3.905737,-5.67914 -0.127599,-8.80473 6.093064,4.83627 9.439737,-0.38076 -5.631254,6.46229 z"
       inkscape:transform-center-x="-0.015570751"
       inkscape:transform-center-y="-0.12216332"
       transform="translate(-27.464396,-153.95154)" />
    <path
       sodipodi:type="star"
       style="fill:#ff7901;fill-opacity:0.834025;stroke-width:0.264583"
       id="path46"
       inkscape:flatsided="false"
       sodipodi:sides="4"
       sodipodi:cx="131.28683"
       sodipodi:cy="168.04715"
       sodipodi:r1="8.4153137"
       sodipodi:r2="4.2076583"
       sodipodi:arg1="2.5535901"
       sodipodi:arg2="3.3389882"
       inkscape:rounded="0"
       inkscape:randomized="0.1"
       d="m 123.90292,171.97946 2.82163,-4.98852 -0.13964,-6.32983 6.16396,3.01527 5.67175,-1.02267 -2.8199,6.81698 0.13964,6.32983 -4.82277,-4.09348 z"
       inkscape:transform-center-x="0.3460377"
       inkscape:transform-center-y="0.48952833"
       transform="translate(-24.401037,-155.11853)" />
  </g>
</svg>
