<?xml version="1.0" encoding="UTF-8" standalone="no"?>
<!-- Created with Inkscape (http://www.inkscape.org/) -->

<svg
   version="1.1"
   id="svg1"
   width="30.161375"
   height="37.365856"
   viewBox="0 0 30.161375 37.365856"
   sodipodi:docname="trash_can.svg"
   inkscape:version="1.3 (0e150ed6c4, 2023-07-21)"
   xmlns:inkscape="http://www.inkscape.org/namespaces/inkscape"
   xmlns:sodipodi="http://sodipodi.sourceforge.net/DTD/sodipodi-0.dtd"
   xmlns="http://www.w3.org/2000/svg"
   xmlns:svg="http://www.w3.org/2000/svg">
  <defs
     id="defs1" />
  <sodipodi:namedview
     id="namedview1"
     pagecolor="#ffffff"
     bordercolor="#000000"
     borderopacity="0.25"
     inkscape:showpageshadow="2"
     inkscape:pageopacity="0.0"
     inkscape:pagecheckerboard="0"
     inkscape:deskcolor="#d1d1d1"
     inkscape:zoom="7.1313485"
     inkscape:cx="23.908522"
     inkscape:cy="21.945359"
     inkscape:window-width="1366"
     inkscape:window-height="705"
     inkscape:window-x="-8"
     inkscape:window-y="-8"
     inkscape:window-maximized="1"
     inkscape:current-layer="g1" />
  <g
     inkscape:groupmode="layer"
     inkscape:label="Image"
     id="g1"
     transform="translate(-57.339604,-23.719803)">
    <path
       style="fill:#000000;fill-opacity:1;stroke-width:0.471411;paint-order:stroke fill markers"
       d="m 63.753496,60.948519 c -0.875671,-0.150497 -1.95593,-0.589419 -1.809944,-0.735405 0.03144,-0.03144 -0.0036,-0.03384 -0.07794,-0.0053 -0.07761,0.02978 -0.1351,0.01483 -0.1351,-0.03513 0,-0.04784 -0.05221,-0.08698 -0.11601,-0.08698 -0.14541,0 -1.096068,-0.9532 -1.346826,-1.350427 -0.218276,-0.34577 -0.233964,-0.456648 -0.06461,-0.456648 0.06737,0 0.09958,-0.03707 0.07157,-0.08238 -0.03512,-0.05683 -0.0836,-0.05526 -0.156295,0.0051 -0.136887,0.113606 -0.216171,-0.03341 -0.428622,-0.794805 -0.160341,-0.574635 -0.162196,-0.70556 -0.15945,-11.249948 0.0019,-7.311107 -0.0232,-10.717093 -0.07978,-10.822811 -0.06714,-0.125453 -0.16642,-0.154464 -0.531564,-0.155337 -0.541733,-0.0013 -0.81854,-0.06665 -0.750256,-0.177137 0.02902,-0.04695 0.0126,-0.05833 -0.03854,-0.02672 -0.15563,0.09619 -0.416562,-0.111767 -0.564627,-0.449982 -0.115144,-0.263017 -0.145059,-0.550662 -0.152509,-1.46644 -0.014,-1.721103 0.250406,-2.800531 0.839277,-3.426277 0.117574,-0.124937 0.206954,-0.250231 0.198622,-0.27843 -0.03087,-0.104472 0.674729,-0.68111 1.230883,-1.005921 0.411089,-0.24009 0.669735,-0.338392 0.91082,-0.346173 0.185184,-0.006 0.320429,-0.03738 0.300546,-0.06979 -0.01988,-0.03241 -0.02523,-0.06528 -0.01187,-0.07305 0.01335,-0.0078 1.261733,-0.03429 2.774176,-0.05893 l 2.749898,-0.0448 0.04889,-0.400533 c 0.05782,-0.473736 0.216997,-0.989224 0.291359,-0.943578 0.02893,0.01776 0.05609,-0.06501 0.06036,-0.18393 0.0073,-0.20445 0.25595,-0.618284 0.685419,-1.140976 0.174429,-0.212293 0.205038,-0.222948 0.338553,-0.117853 0.133406,0.105009 0.137481,0.103641 0.04471,-0.01501 -0.08805,-0.112626 -0.06648,-0.157694 0.157137,-0.32821 0.43969,-0.335284 1.177493,-0.656874 1.71916,-0.74934 0.576165,-0.09836 5.021654,-0.124334 5.022428,-0.02935 2.8e-4,0.03241 0.150526,0.06398 0.333916,0.07016 0.18339,0.0062 0.439504,0.05608 0.569142,0.110898 0.129638,0.05481 0.260455,0.09454 0.290703,0.08828 0.03025,-0.0063 0.301975,0.155973 0.603837,0.360513 0.544045,0.368642 1.385922,1.302241 1.299866,1.441485 -0.02367,0.03831 -0.01335,0.06965 0.02293,0.06965 0.134291,0 0.490762,1.121349 0.492341,1.548754 l 9.32e-4,0.252375 2.674259,0.02262 c 2.148406,0.01817 2.6872,0.04358 2.740076,0.129215 0.04084,0.06614 0.08442,0.0765 0.114826,0.0273 0.0321,-0.05193 0.177819,-0.04115 0.422306,0.03125 0.806839,0.238922 1.538553,0.756739 2.150611,1.521936 0.429154,0.53653 0.942219,1.606844 0.697862,1.455823 -0.05232,-0.03234 -0.03176,0.03792 0.04569,0.156135 0.119987,0.183124 0.144939,0.435529 0.168606,1.705585 0.0213,1.142895 0.0058,1.477096 -0.06625,1.432541 -0.05996,-0.03706 -0.0734,-0.02473 -0.03708,0.03403 0.07356,0.119021 -0.232295,0.614417 -0.451898,0.731946 -0.09322,0.04989 -0.47013,0.111311 -0.83759,0.1365 l -0.668108,0.0458 -0.04021,10.921022 c -0.03827,10.396123 -0.04727,10.942647 -0.187213,11.370979 -0.08085,0.247477 -0.180714,0.429124 -0.221918,0.403658 -0.04156,-0.02569 -0.06413,0.03633 -0.0507,0.139306 0.02164,0.16582 -0.204012,0.565295 -0.635633,1.125282 -0.517128,0.670925 -1.718294,1.488091 -2.187371,1.488091 -0.151469,0 -0.225899,0.01682 -0.165401,0.03739 0.0605,0.02056 -0.06678,0.09137 -0.282847,0.157355 -0.340556,0.104002 -1.527439,0.122024 -8.917525,0.135409 -4.688575,0.0085 -8.692694,-0.01343 -8.898042,-0.04872 z m 17.579861,-2.54809 c 0.259277,-0.127457 0.50285,-0.246949 0.541275,-0.26554 0.03842,-0.01859 0.04159,0.01498 0.007,0.0746 -0.03455,0.05962 -0.04242,0.09073 -0.01748,0.06912 0.02493,-0.02161 0.05475,-0.07464 0.06626,-0.117852 0.01151,-0.04321 0.102317,-0.142593 0.201797,-0.220844 0.210376,-0.165481 0.733197,-1.067162 0.733197,-1.264503 0,-0.07402 0.02652,-0.118191 0.05893,-0.09816 0.07996,0.04942 0.03512,-21.256592 -0.0449,-21.336614 -0.104982,-0.104983 -20.839541,-0.07637 -20.966423,0.02893 -0.155293,0.128881 -0.118225,21.196799 0.03793,21.555523 0.120624,0.277106 0.45106,0.787455 0.679138,1.048908 0.194738,0.223235 0.999035,0.645684 1.378895,0.724251 0.151244,0.03128 4.005029,0.05171 8.563966,0.0454 l 8.288977,-0.01148 z M 82.736719,34.98305 c -0.04782,-0.124608 -0.18555,-0.163488 -0.18555,-0.05238 0,0.08309 0.08588,0.170233 0.167766,0.170233 0.03465,0 0.04266,-0.05303 0.01778,-0.117853 z m 2.731234,-0.06024 c -0.0776,-0.07702 -0.08662,-0.06799 -0.04398,0.04398 0.02951,0.07749 0.07344,0.121092 0.09763,0.0969 0.02419,-0.02419 5e-5,-0.08759 -0.05365,-0.140883 z m 1.1475,0.05205 c -0.02611,-0.02611 -0.09387,-0.0289 -0.150591,-0.0062 -0.06268,0.02508 -0.04406,0.0437 0.04747,0.04747 0.08282,0.0034 0.129229,-0.01516 0.103121,-0.04127 z M 84.99339,32.645637 c 0.0036,-0.09723 0.01354,-0.318202 0.02202,-0.491053 0.01734,-0.353169 -0.181943,-0.898546 -0.462941,-1.266954 -0.103089,-0.135156 -0.162446,-0.270726 -0.131905,-0.301267 0.03054,-0.03054 0.02017,-0.04687 -0.02304,-0.03629 -0.04321,0.01058 -0.184636,-0.02736 -0.314274,-0.08431 -0.129638,-0.05695 -0.324095,-0.117863 -0.432127,-0.135367 -0.108031,-0.0175 -0.208207,-0.06501 -0.222611,-0.105568 -0.01615,-0.04546 -4.201175,-0.07374 -10.912954,-0.07374 H 61.628797 l -0.479478,0.16964 c -0.551246,0.195032 -0.926361,0.511813 -1.144121,0.9662 -0.175683,0.366587 -0.280927,1.043049 -0.207681,1.334886 l 0.05035,0.200603 H 72.417329 84.986793 Z M 57.751935,31.29033 c 0.02487,-0.06482 0.01098,-0.117852 -0.03088,-0.117852 -0.04186,0 -0.0761,0.05303 -0.0761,0.117852 0,0.06482 0.01389,0.117853 0.03088,0.117853 0.01698,0 0.05123,-0.05303 0.0761,-0.117853 z M 85.01952,31.121948 c 0.02725,-0.071 0.03103,-0.147608 0.0084,-0.170232 -0.02262,-0.02262 -0.04113,0.0022 -0.04113,0.05517 0,0.05297 -0.03536,0.07445 -0.07857,0.04774 -0.04321,-0.02671 -0.07857,0.0066 -0.07857,0.07393 0,0.161584 0.12702,0.157163 0.189865,-0.0066 z M 74.203265,28.049462 c -0.939875,-0.01253 -2.477853,-0.01253 -3.417729,0 -0.939876,0.01253 -0.170886,0.02279 1.708865,0.02279 1.879752,0 2.648741,-0.01026 1.708864,-0.02279 z m 1.770044,-0.474511 c -0.0405,-0.255797 -0.171522,-0.557361 -0.320834,-0.738432 -0.06011,-0.0729 -0.08632,-0.169723 -0.05823,-0.215164 0.032,-0.05177 7.21e-4,-0.0633 -0.08376,-0.03088 -0.09086,0.03486 -0.116478,0.02206 -0.07857,-0.03928 0.03791,-0.06134 0.01229,-0.07415 -0.07857,-0.03928 -0.101305,0.03888 -0.118721,0.024 -0.07005,-0.05983 0.03562,-0.06136 0.03854,-0.08805 0.0065,-0.05932 -0.03206,0.02873 -0.178015,0.0022 -0.324347,-0.05893 -0.208638,-0.08717 -0.758003,-0.111166 -2.545478,-0.111166 -2.563137,0 -2.698851,0.02341 -3.233096,0.557653 -0.161428,0.161428 -0.277785,0.309227 -0.258571,0.328441 0.01922,0.01921 -4.2e-4,0.127921 -0.04363,0.24157 -0.176575,0.464428 -0.317194,0.447003 3.567951,0.44213 l 3.554436,-0.0045 z m -9.017987,-0.959447 c -0.02671,-0.04321 -0.0052,-0.07857 0.04774,-0.07857 0.05297,0 0.07779,-0.01851 0.05517,-0.04113 -0.02262,-0.02262 -0.102192,-0.0177 -0.176819,0.01093 -0.107544,0.04127 -0.11395,0.06585 -0.03089,0.118499 0.138333,0.08769 0.16356,0.08535 0.104799,-0.0097 z"
       id="path1" />
    <path
       style="fill:#000000;fill-opacity:1;stroke-width:0.471411;paint-order:stroke fill markers"
       d="M 63.34117,60.979029 C 61.881575,60.667895 60.485578,59.557354 59.863797,58.212716 59.388967,57.185869 59.42073,57.971301 59.375566,46.139777 l -0.04139,-10.842453 -0.646135,-0.04205 c -0.725293,-0.0472 -0.965091,-0.171117 -1.215899,-0.628309 -0.136075,-0.248047 -0.146984,-0.41678 -0.121745,-1.883115 0.02578,-1.49797 0.04166,-1.647188 0.227,-2.132849 0.394359,-1.03339 1.197858,-1.924071 2.184827,-2.421887 0.815083,-0.411118 0.896826,-0.421169 3.809476,-0.468413 l 2.744723,-0.04452 0.09584,-0.569334 c 0.241897,-1.436905 1.266008,-2.655439 2.670745,-3.177776 0.436893,-0.162454 0.62041,-0.174716 3.029186,-0.202411 1.632232,-0.01877 2.731577,0.0014 3.024888,0.05553 1.008671,0.186104 2.142666,0.943438 2.690137,1.796597 0.293289,0.457052 0.462416,0.911799 0.590116,1.586695 l 0.09663,0.510695 2.745357,0.04111 c 2.396863,0.0359 2.795225,0.05935 3.1382,0.18474 1.228836,0.449269 2.124582,1.225061 2.625059,2.273526 0.413731,0.866737 0.478397,1.247489 0.478397,2.816805 0,1.21088 -0.01574,1.368413 -0.162455,1.626429 -0.265748,0.467336 -0.500905,0.591052 -1.211642,0.637445 l -0.6294,0.04109 -0.04085,10.803169 c -0.03185,8.425148 -0.06282,10.872347 -0.140659,11.117443 -0.238519,0.751 -0.372066,1.051659 -0.680532,1.532086 -0.639437,0.995907 -1.492936,1.669857 -2.630791,2.077357 l -0.671303,0.240414 -8.721104,0.01424 c -7.471805,0.0122 -8.799888,-0.0026 -9.271083,-0.103 z m 18.048562,-2.693428 c 0.597548,-0.305396 0.901793,-0.606916 1.177533,-1.166987 l 0.258894,-0.525854 0.02103,-10.602939 c 0.01685,-8.4937 0.0012,-10.615515 -0.07857,-10.666157 -0.114392,-0.07261 -20.489593,-0.09028 -20.678121,-0.01793 -0.112468,0.04316 -0.124278,1.046028 -0.124278,10.553203 0,11.515492 -0.0231,10.938869 0.465264,11.61304 0.306063,0.422506 0.714347,0.725188 1.210795,0.897624 0.382097,0.132717 0.905703,0.139974 8.891404,0.123229 l 8.485398,-0.01779 z M 84.86894,32.129398 c 0,-0.461229 -0.03375,-0.592074 -0.237783,-0.921921 -0.14726,-0.238064 -0.384193,-0.474926 -0.622372,-0.622186 l -0.38459,-0.237783 -11.107188,-0.02044 -11.107189,-0.02044 -0.390203,0.167861 c -0.706642,0.30399 -1.096174,0.91204 -1.096174,1.711104 0,0.375952 0.026,0.473177 0.13197,0.493577 0.07258,0.01397 5.68532,0.01693 12.47275,0.0066 L 84.86894,32.66695 Z m -9.034429,-4.494039 c 0.09523,-0.154092 -0.130171,-0.618999 -0.432573,-0.892202 -0.476989,-0.43093 -0.653227,-0.454538 -3.189424,-0.42724 l -2.285383,0.0246 -0.324256,0.224834 c -0.340977,0.236427 -0.693581,0.829162 -0.615027,1.033872 0.03842,0.100116 0.51301,0.116243 3.420882,0.116243 2.209259,0 3.393387,-0.02769 3.425781,-0.0801 z"
       id="path2" />
    <path
       style="fill:#000000;fill-opacity:1;stroke-width:0.471411;paint-order:stroke fill markers"
       d="M 77.096553,54.255265 C 76.907786,54.14504 76.717318,53.940884 76.605499,53.728922 l -0.182673,-0.346274 0.0017,-6.25348 c 0.0016,-5.928606 0.0093,-6.270211 0.147983,-6.575527 0.204009,-0.449217 0.562882,-0.68428 1.10225,-0.721975 0.504892,-0.03529 0.852533,0.146295 1.163484,0.607714 l 0.179979,0.267071 -0.02097,6.462577 c -0.02073,6.388143 -0.02284,6.465076 -0.182964,6.679518 -0.277842,0.372088 -0.551596,0.525578 -0.993636,0.557121 -0.32764,0.02338 -0.481093,-0.0085 -0.724122,-0.150402 z"
       id="path3" />
    <path
       style="fill:#000000;fill-opacity:1;stroke-width:0.471411;paint-order:stroke fill markers"
       d="m 71.737896,54.232824 c -0.656269,-0.39339 -0.618444,0.04393 -0.618444,-7.150225 V 40.71855 l 0.184696,-0.297074 c 0.501187,-0.80613 1.743824,-0.79349 2.202381,0.0224 0.165702,0.294827 0.166399,0.322885 0.166399,6.696726 v 6.400658 l -0.178649,0.265098 c -0.426179,0.632408 -1.128384,0.802908 -1.756383,0.426464 z"
       id="path4" />
    <path
       style="fill:#000000;fill-opacity:1;stroke-width:0.471411;paint-order:stroke fill markers"
       d="m 66.452224,54.265154 c -0.38669,-0.235743 -0.53935,-0.452426 -0.634886,-0.90115 -0.05728,-0.269044 -0.07743,-2.357319 -0.06253,-6.481902 0.02166,-5.996485 0.02437,-6.089554 0.186064,-6.399257 0.425642,-0.815246 1.629554,-0.88781 2.192972,-0.132177 0.154206,0.206815 0.157137,0.333373 0.157137,6.785698 v 6.574953 l -0.235706,0.247879 c -0.129637,0.136334 -0.331178,0.297757 -0.447866,0.358718 -0.310922,0.162432 -0.841991,0.138177 -1.15519,-0.05276 z"
       id="path5" />
  </g>
</svg>
